<svg id="Слой_1" data-name="Слой 1" xmlns="http://www.w3.org/2000/svg" viewBox="0 0 2024 2024"><defs><style>.cls-1{fill:#fff;}.cls-2{fill:#ffdc14;}</style></defs><path class="cls-1" d="M1156.38,199.4q-24.53,18.51-47.54,39.23a685.37,685.37,0,0,0-109.17,125,690.87,690.87,0,0,0-91.58-100.21,710,710,0,0,0-74.42-58.55c.37-.93.76-1.88,1.16-2.82s.78-1.88,1.18-2.82l1.16-2.7c.4-.91.81-1.83,1.22-2.74.82-1.83,1.65-3.66,2.5-5.47.32-.71.65-1.41,1-2.11s.53-1.14.81-1.71.55-1.14.83-1.71c.41-.86.83-1.72,1.26-2.57.88-1.79,1.79-3.56,2.69-5.33.35-.65.68-1.31,1-2l2.12-4,0-.07c.38-.74.79-1.48,1.19-2.22l.27-.5c.86-1.57,1.73-3.14,2.62-4.69.71-1.26,1.43-2.52,2.15-3.76.49-.86,1-1.74,1.51-2.6.21-.36.44-.74.65-1.11.54-.91,1.09-1.81,1.64-2.73.39-.68.81-1.35,1.22-2l.16-.26c.62-1,1.24-2,1.87-3l.25-.42.38-.61c.69-1.11,1.39-2.2,2.09-3.3.79-1.26,1.6-2.51,2.41-3.76s1.62-2.48,2.44-3.71l1.45-2.18c.95-1.42,1.92-2.84,2.88-4.24l.21-.32c.9-1.29,1.79-2.58,2.69-3.86.55-.79,1.12-1.58,1.68-2.38.78-1.08,1.55-2.17,2.34-3.25.55-.76,1.09-1.52,1.65-2.28.21-.29.41-.57.62-.84.66-.91,1.33-1.82,2-2.72.25-.32.48-.63.71-1,1.12-1.49,2.24-3,3.36-4.44q.14-.19.3-.39l2.13-2.77c.72-.93,1.43-1.84,2.15-2.75.51-.64,1-1.29,1.52-1.92,1.63-2.08,3.28-4.12,4.93-6.13.71-.88,1.43-1.75,2.15-2.62q4.43-5.37,8.82-10.45l3.38-3.87.68-.76,2.13-2.4.55-.61,3.33-3.7c.82-.91,1.64-1.8,2.47-2.68s1.39-1.52,2.1-2.27,1.37-1.5,2.07-2.23,1.38-1.48,2.08-2.2,1.37-1.45,2.06-2.16c1.31-1.38,2.62-2.73,3.91-4.07l1.6-1.62c.85-.87,1.71-1.75,2.56-2.6,1.48-1.5,3-3,4.41-4.41,1-1,1.92-1.9,2.88-2.83q2.15-2.1,4.23-4.09l1.83-1.75.7-.67,1.3-1.22,1.28-1.2c1.29-1.21,2.56-2.4,3.8-3.54l1.7-1.56c2.27-2.09,4.46-4.06,6.53-5.91l2.94-2.59.61-.54,2.25-2q2.82-2.43,5.29-4.52l1.76-1.49c1.73-1.46,3.32-2.76,4.73-3.91.31-.25.62-.49.91-.74s.58-.49.87-.7l.14-.12,1.43-1.14,1.15-.91c.2-.17.39-.32.58-.46C995.16.74,996.15,0,996.15,0s1,.74,2.82,2.17c.19.14.38.29.57.46l1.16.91,1.43,1.14.14.12c.29.21.57.46.87.7s.78.63,1.19,1l1.58,1.29c.28.23.56.45.84.69a4.47,4.47,0,0,1,.35.29l1.11.92,2.36,2q2.71,2.29,5.84,5l1.85,1.61,1.91,1.69c.51.44,1,.9,1.53,1.36,1.55,1.36,3.14,2.81,4.8,4.31l1.66,1.52c.08.08.17.15.24.23l1.46,1.33,1.72,1.59c1.16,1.09,2.35,2.19,3.54,3.33,1.41,1.32,2.85,2.7,4.31,4.1l2.92,2.82c1.32,1.29,2.66,2.6,4,3.95l2,1.94,1.56,1.56c.81.81,1.61,1.62,2.41,2.45l2.45,2.49c1,1,2,2,3,3.06l2.73,2.87c.69.72,1.38,1.46,2.06,2.19,2.08,2.21,4.18,4.49,6.29,6.8.62.68,1.25,1.35,1.86,2,.09.1.17.2.26.29.71.79,1.42,1.57,2.12,2.37,1.41,1.57,2.82,3.18,4.24,4.79s2.87,3.31,4.31,5c.72.84,1.45,1.68,2.16,2.53,1.43,1.7,2.87,3.41,4.3,5.16.72.87,1.44,1.74,2.15,2.62s1.66,2,2.47,3c.57.69,1.12,1.38,1.66,2.07.78,1,1.55,1.95,2.32,2.93.54.67,1.06,1.35,1.58,2,1,1.21,1.89,2.44,2.83,3.67.68.88,1.35,1.76,2,2.64s1.42,1.88,2.13,2.83,1.35,1.81,2,2.72q1.21,1.65,2.43,3.33c.79,1.1,1.58,2.19,2.35,3.29.06.07.1.14.15.21.5.68,1,1.36,1.46,2.06q2.48,3.54,4.91,7.14l1.59,2.35c.62.94,1.24,1.89,1.87,2.83.48.72,1,1.46,1.44,2.2l.4.61c.78,1.22,1.57,2.44,2.34,3.68.48.73.94,1.47,1.39,2.2.85,1.34,1.68,2.69,2.51,4,.54.89,1.08,1.77,1.6,2.66,1.29,2.13,2.55,4.27,3.8,6.44.6,1,1.2,2.06,1.79,3.11l.29.52c.55,1,1.08,1.93,1.62,2.9q1.14,2,2.25,4.11c.82,1.52,1.63,3,2.43,4.58l1.07,2a2.8,2.8,0,0,1,.15.3c.4.77.8,1.54,1.18,2.31l.39.78q.86,1.68,1.68,3.36s0,0,0,.05c.39.78.76,1.57,1.15,2.37,1.57,3.27,3.11,6.56,4.59,9.9.42.92.82,1.85,1.22,2.77s.71,1.64,1.06,2.46C1156.33,199.27,1156.35,199.33,1156.38,199.4Z"/><path class="cls-1" d="M1593.86,128c-2.07,1.85-4.14,3.7-6.18,5.58-.35.3-.69.61-1,.92-1.1,1-2.2,2-3.28,3l-.53.49c-.86.78-1.71,1.58-2.56,2.38-2.23,2.07-4.46,4.16-6.66,6.26s-4.38,4.17-6.55,6.27l0,.06c-1.09,1.05-2.17,2.1-3.25,3.17l-3.23,3.17c-2.15,2.12-4.29,4.27-6.42,6.42l-.5.49c-1.87,1.91-3.74,3.81-5.59,5.73l-.4.4c-.2.19-.38.39-.57.59q-2.47,2.55-4.92,5.11l-.76.81c-1.83,1.91-3.65,3.85-5.46,5.79l-1.28,1.36c-1.79,1.92-3.56,3.83-5.33,5.76l-.09.12q-2.84,3.08-5.62,6.17l-.36.4c-1.65,1.84-3.3,3.69-4.92,5.54-.56.64-1.12,1.26-1.68,1.91l-1.2,1.35-.26.3-.21.24c-.1.12-.21.23-.3.35-1.36,1.55-2.7,3.1-4,4.66-1.62,1.87-3.23,3.75-4.82,5.62a2.09,2.09,0,0,0-.14.17l-.6.71c-.27.32-.55.64-.81,1q-2.15,2.53-4.27,5.08c-1.82,2.18-3.63,4.36-5.41,6.56l-.66.8c-1.18,1.45-2.36,2.89-3.52,4.34q-1.44,1.77-2.86,3.56c-.72.89-1.42,1.77-2.12,2.66q-1.59,2-3.15,4l-1.49,1.91c-1.18,1.5-2.36,3-3.52,4.52-1.72,2.2-3.41,4.42-5.1,6.64s-3.14,4.15-4.69,6.24-3,4.06-4.54,6.1l-.59.81c-1.88,2.55-3.73,5.1-5.58,7.66q-2.15,3-4.27,6l-.48.69c-1.45,2-2.87,4.05-4.28,6.07-.18.26-.36.51-.54.78a4,4,0,0,0-.25.37c-1.5,2.14-3,4.27-4.45,6.42-1.59,2.34-3.18,4.67-4.75,7s-3,4.49-4.5,6.73c0,.09-.13.19-.19.3-1.55,2.33-3.09,4.68-4.61,7-1.19,1.83-2.38,3.66-3.55,5.5-.51.78-1,1.56-1.51,2.35-1.32,2.06-2.62,4.13-3.93,6.21,0,0,0,0,0,0q-2.2,3.51-4.39,7A709,709,0,0,0,1236.44,393q-18.37,7.78-36.29,16.63-28.59,14.13-55.47,30.69a664.51,664.51,0,0,0-71,50.37,629.89,629.89,0,0,0-32.63-64.43h0q1.68-2.78,3.39-5.52l1.44-2.32c.49-.76,1-1.53,1.45-2.3a.28.28,0,0,0,.06-.09l.07-.11c.11-.16.21-.34.32-.5l.29-.45.42-.66c.12-.2.25-.39.39-.6q1.24-1.95,2.52-3.89c.56-.88,1.13-1.74,1.7-2.6s1-1.57,1.55-2.34a.18.18,0,0,1,.06-.09l.1-.16c.23-.35.47-.69.7-1,1-1.52,2-3,3.06-4.53s1.88-2.74,2.83-4.09c.45-.65.9-1.31,1.35-1.95l1.51-2.12c.44-.63.87-1.25,1.32-1.86l1.34-1.86c1-1.46,2.1-2.91,3.16-4.36q1.86-2.54,3.74-5t3.8-5q1.77-2.32,3.58-4.62c.2-.28.42-.55.64-.83.67-.86,1.35-1.72,2-2.57,1-1.23,1.94-2.44,2.94-3.66s2.15-2.67,3.23-4l.22-.26c.94-1.15,1.88-2.29,2.84-3.43a.44.44,0,0,1,.09-.11l.42-.5.52-.63,1.71-2c.59-.68,1.16-1.36,1.74-2,.34-.42.7-.82,1.06-1.24l1.72-2,1.19-1.37.55-.63c.13-.15.27-.3.39-.45l.38-.43.37-.41c1.13-1.31,2.29-2.61,3.45-3.9.71-.81,1.44-1.61,2.16-2.42s1.39-1.52,2.08-2.29q2.19-2.4,4.4-4.78l3.34-3.56c.55-.59,1.11-1.18,1.68-1.76l1.69-1.77c1.12-1.16,2.24-2.33,3.39-3.49s2.27-2.34,3.42-3.49c1.53-1.54,3.05-3.07,4.6-4.6,1.32-1.31,2.65-2.6,4-3.89l.88-.86,2.84-2.72c.56-.54,1.12-1.08,1.69-1.61l.28-.26a.46.46,0,0,1,.07-.07l.31-.29.28-.27c.57-.55,1.13-1.08,1.7-1.6q1.35-1.28,2.7-2.52l.26-.24c.89-.83,1.79-1.66,2.68-2.46.72-.67,1.43-1.33,2.15-2l2.79-2.51c1-.92,2.07-1.85,3.1-2.75.41-.37.82-.74,1.23-1.08l.33-.29.37-.32a.46.46,0,0,1,.07-.07.66.66,0,0,0,.15-.14c.81-.72,1.63-1.43,2.45-2.13l.09-.08.2-.18.34-.3.23-.19.09-.09c.22-.17.42-.35.64-.54l.74-.63q1.88-1.62,3.77-3.21c.34-.3.7-.59,1-.88.6-.52,1.22-1,1.83-1.53l.2-.16.09-.08.31-.25.44-.37c1-.87,2.07-1.73,3.11-2.58a1.5,1.5,0,0,0,.13-.11c1.21-1,2.41-2,3.63-2.95.85-.69,1.7-1.38,2.55-2l3.74-3c1.63-1.28,3.28-2.56,4.91-3.82.16-.12.31-.25.48-.37l.81-.63,4.76-3.62c1.58-1.18,3.17-2.37,4.77-3.54l2.36-1.74.19-.14c1.14-.84,2.28-1.67,3.43-2.49l.31-.22c.22-.17.42-.32.64-.47,1.86-1.33,3.72-2.66,5.59-4s3.85-2.69,5.79-4,3.89-2.66,5.84-4,3.91-2.61,5.88-3.89l3.73-2.42.12-.07,1.07-.68h0l1.67-1.06c1.46-.93,2.92-1.86,4.39-2.77l2-1.24q2.46-1.53,4.95-3c2-1.22,4-2.44,6-3.63s4.06-2.39,6.11-3.56,4.07-2.36,6.13-3.51l3.67-2,.22-.11.08,0,.65-.35c.25-.15.51-.29.77-.43.68-.39,1.37-.77,2-1.12.12-.08.26-.15.39-.22l.48-.26.06,0,2.92-1.57c.22-.13.46-.25.69-.37l.17-.09c.22-.13.46-.26.69-.37,1.54-.83,3.07-1.65,4.62-2.45l1.93-1q2.76-1.44,5.54-2.84,2.58-1.32,5.17-2.59l2.3-1.13c1.73-.86,3.48-1.7,5.22-2.53s3.43-1.64,5.16-2.44l.53-.25.25-.11s0,0,0,0c2.55-1.19,5.1-2.35,7.66-3.5,1.89-.85,3.77-1.68,5.65-2.51l5.07-2.2.67-.28a3.49,3.49,0,0,0,.34-.15c.51-.21,1-.43,1.51-.63l.63-.27c1.61-.68,3.21-1.35,4.82-2l.07,0q3.18-1.32,6.37-2.59l3.41-1.34,3.31-1.28c1.19-.47,2.38-.92,3.59-1.38s2.4-.89,3.6-1.35l3.71-1.36,2.37-.86c1.28-.47,2.55-.92,3.84-1.37l5.14-1.79,4.42-1.49,1-.31c1.66-.56,3.31-1.1,5-1.64l4.2-1.34L1390,155l5-1.54c1.32-.4,2.64-.8,4-1.19l1.25-.37c1.74-.52,3.48-1,5.24-1.52s3.74-1.06,5.62-1.57q2.45-.68,4.9-1.32l.08,0q2.6-.71,5.19-1.36l5.14-1.29c3.59-.88,7.18-1.74,10.8-2.56l5.34-1.19,1.18-.25c1.38-.31,2.78-.6,4.17-.89,1.78-.37,3.57-.74,5.35-1.08s3.58-.71,5.37-1.05,3.59-.68,5.38-1l5.23-.91.51-.09,5.07-.84c1.8-.29,3.6-.58,5.41-.85s3.72-.56,5.6-.83l5.14-.7c1.89-.25,3.79-.5,5.68-.73.9-.12,1.79-.22,2.67-.32l2.67-.31c.87-.1,1.75-.21,2.64-.3l.42,0,.6-.06.52-.06.93-.09,3.18-.33c.2,0,.42,0,.62-.06l3.18-.31,4.86-.43h.16c1.59-.14,3.2-.26,4.8-.39l1.8-.14,2.41-.16.41,0c.71-.06,1.43-.1,2.14-.14l4.87-.31c1.62-.08,3.25-.17,4.88-.24,1.29-.07,2.58-.13,3.88-.17.72,0,1.43-.07,2.15-.09s1.5-.07,2.24-.08h.17l4.06-.12,4.06-.09,3.86-.07H1568Q1580.93,127.43,1593.86,128Z"/><path class="cls-1" d="M1019.72,539.92c-2.59,2.64-5.15,5.32-7.69,8q-9.57-10.14-19.62-19.88a647.59,647.59,0,0,0-55.19-47.79A672.36,672.36,0,0,0,836.07,415.8q-6.06-3.15-12.2-6.18a698.56,698.56,0,0,0-71.49-30.45,710,710,0,0,0-168.23-38.56c-.3-.46-.61-.92-.92-1.38q-2.46-3.72-5-7.43c-.63-.93-1.25-1.86-1.9-2.79-1.14-1.7-2.31-3.4-3.48-5.1L571,321.25c-.62-.88-1.23-1.77-1.84-2.65-.07-.08-.12-.16-.18-.24-.92-1.33-1.86-2.68-2.8-4-1.72-2.42-3.45-4.86-5.18-7.28-.45-.62-.9-1.26-1.36-1.88-.86-1.18-1.72-2.38-2.59-3.56q-3.17-4.36-6.41-8.72c-.91-1.22-1.82-2.44-2.75-3.66l-.42-.56-3-3.95c-1.34-1.77-2.69-3.54-4-5.29-1.11-1.45-2.23-2.9-3.36-4.33-.77-1-1.53-2-2.31-2.95q-1.63-2.09-3.3-4.17c-1.1-1.39-2.2-2.78-3.32-4.17s-2.23-2.77-3.36-4.15-2-2.44-3-3.66l-2.56-3.11q-1.38-1.68-2.79-3.35a2.73,2.73,0,0,0-.2-.25l-.12-.14c-1.1-1.34-2.22-2.65-3.34-4q-2.76-3.3-5.57-6.56l-3-3.49c-1.51-1.76-3-3.5-4.58-5.24-1.84-2.08-3.68-4.16-5.53-6.22l-1.89-2.09c-.85-1-1.71-1.89-2.57-2.84q-4.8-5.29-9.75-10.55c-1.7-1.82-3.42-3.63-5.14-5.44q-6.61-6.93-13.42-13.77c-.78-.79-1.58-1.58-2.38-2.37l-2.52-2.51q-6.93-6.88-14.07-13.62c-.85-.81-1.7-1.62-2.55-2.4-.11-.11-.2-.21-.31-.31-1.51-1.42-3-2.83-4.54-4.22l-2.52-2.33c-.84-.77-1.68-1.54-2.53-2.3s-1.6-1.46-2.41-2.19c-1.48-1.34-3-2.68-4.46-4q12.93-.58,25.83-.58c1.86,0,3.71,0,5.56,0,1.51,0,3,0,4.51.06s2.9.05,4.34.09c.75,0,1.51,0,2.26.07l3.07.09h.07l1.79.07,2,.07.67,0,4.48.2,2.38.12.39,0c1.22.06,2.43.14,3.64.22,1.45.08,2.9.18,4.34.28l1.3.08,4,.29.76.07c1.54.11,3.09.24,4.63.38h.06c1.6.14,3.18.28,4.77.44l2.37.23,3.56.37c1.39.14,2.79.29,4.17.45,1.66.18,3.31.38,5,.58s3.31.41,5,.62H524l4.77.64.25,0c.13,0,.26,0,.38.06,1.47.2,2.93.42,4.39.63l.82.12,4.11.62,4.21.67c1.93.31,3.84.64,5.77,1l4.78.85c1.7.3,3.39.62,5.09,1,1.37.25,2.76.52,4.14.79l.94.19.31.06,4.13.84.08,0,2.42.51,2.42.51.16,0c1.57.33,3.13.67,4.69,1l3.65.83.14,0,.75.17,1.19.28c.83.21,1.67.4,2.51.6l2.52.61,3.76.92,3.49.88c.82.21,1.65.42,2.48.65l2.47.65,1.26.33.34.08c1.35.38,2.72.75,4.08,1.11l.21.07,1,.27,2.17.61,2.17.61c1.44.41,2.88.82,4.31,1.25q4.77,1.41,9.5,2.88c3.65,1.13,7.3,2.3,10.92,3.5l.77.25.7.24,5.29,1.79,2.92,1,2.93,1,4.66,1.68q9.3,3.39,18.5,7.08l4.6,1.86,4.51,1.87.08,0,.45.19.59.25.51.22,3,1.27c1.34.56,2.65,1.14,4,1.71s2.64,1.16,4,1.76c.62.25,1.23.53,1.84.8l.49.22,3.32,1.52q4.5,2,9,4.17l4.45,2.14c1.49.72,3,1.44,4.45,2.18l4.42,2.2q2.08,1.05,4.14,2.11l.42.22,4.23,2.19q4.16,2.16,8.27,4.4l.63.35.38.2.36.21c.51.28,1,.56,1.52.82s1.26.69,1.88,1.05q4.34,2.37,8.61,4.85c1.34.78,2.68,1.54,4,2.33l3.25,1.9,1.62,1c.54.31,1.08.63,1.62,1q3.28,1.95,6.55,4l.31.19.3.19c.44.25.88.52,1.33.8l0,0c.14.1.29.19.42.27l.43.27,3.92,2.47,2.74,1.74.58.37q4.24,2.72,8.43,5.5h0c.23.17.48.33.72.49.84.55,1.66,1.11,2.48,1.67,1,.65,2,1.31,2.93,2s1.87,1.27,2.8,1.91l.13.09c1.15.78,2.29,1.58,3.44,2.39s2.44,1.71,3.66,2.58l.39.27,1.45,1,4.68,3.38,3.46,2.53c.09.06.18.14.28.2v0l.06,0,.06,0h0l0,0,.49.37.27.2q2.22,1.63,4.39,3.3l3.37,2.56c.93.71,1.85,1.41,2.76,2.12l.44.33,3.69,2.89q1.82,1.43,3.65,2.9l2,1.56c1.28,1,2.57,2.07,3.83,3.12a2.88,2.88,0,0,1,.27.22c.8.65,1.61,1.31,2.4,2q2.06,1.69,4.1,3.42t4.14,3.51l.38.33c1.26,1.09,2.52,2.17,3.77,3.27l.71.62c2.11,1.84,4.21,3.69,6.28,5.57.42.37.83.73,1.24,1.11s.83.75,1.24,1.13c.14.12.27.25.41.36l2,1.85,2.54,2.36,3.08,2.87,1.11,1.05,3.66,3.47,2.13,2.07,2.33,2.27.13.13q.91.88,1.83,1.8c.65.63,1.29,1.28,1.94,1.92,1.57,1.56,3.14,3.13,4.69,4.73s3.11,3.16,4.64,4.76,3.05,3.19,4.56,4.8l.07.08c1.42,1.51,2.85,3,4.26,4.56l.68.75,1.95,2.14L908.1,360l.48.52c.68.77,1.36,1.52,2,2.28s1.36,1.53,2,2.3l4.18,4.77c1.51,1.76,3,3.51,4.5,5.29q1.24,1.47,2.46,2.94c.6.72,1.2,1.43,1.79,2.15Q931.93,388,938,395.84c.49.62,1,1.25,1.46,1.88.06.08.11.16.18.24.8,1,1.59,2.1,2.39,3.14l1.19,1.58c.53.71,1,1.41,1.56,2.11q2.75,3.68,5.43,7.4a2.14,2.14,0,0,0,.13.19q1.71,2.39,3.41,4.8.91,1.29,1.8,2.58l0,0,1.95,2.84q1.85,2.67,3.65,5.37a.76.76,0,0,1,.08.11l.07.11.29.43c.14.2.28.42.41.62.72,1.08,1.43,2.14,2.13,3.22.49.72,1,1.45,1.45,2.19s1,1.48,1.43,2.21l2.83,4.42c.46.75.93,1.48,1.4,2.22s.93,1.48,1.38,2.23q1.29,2,2.53,4.11l1.64,2.71c.47.76.93,1.54,1.4,2.31l.23.4c.07.12.14.25.22.37s.05.08.07.13c.6,1,1.19,2,1.77,3l.11.19,1.5,2.59c.74,1.25,1.45,2.51,2.16,3.76.39.71.8,1.43,1.2,2.14l.15.26.35.61.53,1c.49.86,1,1.72,1.45,2.6l1.41,2.59,1.49,2.74c.39.72.77,1.44,1.15,2.17.88,1.65,1.76,3.32,2.63,5l.22.45.32.61c.07.15.16.31.23.46.84,1.63,1.69,3.27,2.51,4.91l.84,1.68c.54,1.08,1.08,2.17,1.6,3.25.71,1.44,1.42,2.9,2.11,4.35.15.3.3.6.44.9h0l.11.22.43.91c.45.94.89,1.89,1.34,2.82.08.19.17.38.25.56.76,1.63,1.51,3.25,2.25,4.88.55,1.2,1.09,2.41,1.63,3.62.82,1.81,1.61,3.63,2.41,5.46.44,1,.87,2,1.3,3q.93,2.21,1.85,4.39c.6,1.44,1.2,2.88,1.78,4.33C1017.45,534.1,1018.59,537,1019.72,539.92Z"/><path class="cls-1" d="M967.58,600.64q-6,7.93-11.64,16.05-12,17-22.79,35-3.72,6.15-7.26,12.4-16.23,1.82-32,4.32h0q-14.11,2.24-27.8,5-10.17,2.06-20.13,4.42h0c-48.12,11.39-92.86,28.09-133.88,50q-15,8-29.4,16.95-2.82-3.39-5.71-6.79c-.93-1.08-1.85-2.18-2.8-3.28q-2.38-2.79-4.82-5.58c-1.62-1.87-3.25-3.74-4.91-5.61-.83-.95-1.66-1.88-2.5-2.82s-1.66-1.88-2.51-2.82q-2.52-2.82-5.1-5.66c-.85-1-1.72-1.88-2.59-2.83q-9.09-9.93-18.75-20-2.84-2.94-5.72-5.89t-5.81-5.88l-3-3q-2-2-4-4c-1.33-1.33-2.68-2.65-4-4L607,663.44c-1.87-1.81-3.74-3.62-5.64-5.42s-3.79-3.61-5.7-5.41q-5.48-5.15-11.08-10.28l-.57-.52-3.65-3.34-3.68-3.31c-1.94-1.74-3.89-3.49-5.86-5.22s-3.94-3.47-5.93-5.21c-1.12-1-2.23-2-3.35-2.91q-3.63-3.15-7.33-6.29l-4-3.37-.54-.45c-2.91-2.44-5.83-4.87-8.79-7.3l-3.41-2.8-3.65-3L531,596.36c-1.43-1.16-2.86-2.3-4.31-3.44q-3.6-2.86-7.23-5.7-1.82-1.43-3.65-2.83c-1.21-.95-2.44-1.89-3.67-2.83l-4.06-3.11-3.34-2.52-2.87-2.15c-1-.72-1.92-1.44-2.89-2.15q-2.11-1.59-4.26-3.14c-2.29-1.7-4.6-3.38-6.93-5.06s-4.65-3.36-7-5l-5.2-3.67c-1.74-1.21-3.47-2.43-5.23-3.64s-3.52-2.43-5.28-3.63l-5.32-3.61q-2.6-1.75-5.22-3.49c-1.33-.88-2.67-1.78-4-2.65l-4-2.64c-1.86-1.21-3.73-2.43-5.6-3.62l-.09-.06q-4.07-2.61-8.19-5.19c-1.45-.92-2.91-1.83-4.39-2.75q-7.27-4.51-14.68-8.94c-2-1.21-4-2.4-6.06-3.59l-.78-.46c-1.95-1.14-3.88-2.27-5.84-3.4l-1.39-.79-.16-.1c-1.79-1-3.59-2.06-5.39-3.07-2.24-1.27-4.49-2.54-6.75-3.77-1.16-.66-2.32-1.31-3.5-1.94-2.14-1.18-4.29-2.36-6.44-3.51l-2.4-1.3-4.25-2.26c-1.47-.78-2.93-1.55-4.4-2.31l-4.72-2.46c-2.6-1.33-5.21-2.67-7.83-4l-1.66-.83-4.7-2.33a.18.18,0,0,0-.08-.05l-3.31-1.62c-3.74-1.83-7.48-3.63-11.26-5.41-1.27-.61-2.55-1.21-3.83-1.79q-8.39-3.94-16.92-7.68l-4.64-2-4.67-2q-4.49-1.92-9-3.79l-.83-.34-4.26-1.75L283.8,450l5.15-2.11q2.57-1,5.16-2c2.3-.91,4.59-1.79,6.9-2.66s4.62-1.72,6.94-2.56,4.64-1.66,7-2.47,4.64-1.6,7-2.38,4.66-1.53,7-2.29q3.87-1.23,7.72-2.4c2.12-.64,4.24-1.28,6.36-1.89l2.88-.84.65-.18c2.35-.67,4.7-1.33,7.07-2l.16-.05c2.31-.62,4.62-1.22,6.93-1.83,1.82-.47,3.64-.92,5.47-1.37l5.19-1.27.29-.07q5.2-1.25,10.42-2.38l.36-.07,3.6-.78c1.3-.28,2.61-.54,3.91-.8,2.6-.54,5.22-1.06,7.83-1.55,1.3-.26,2.62-.51,3.92-.74l.84-.16h0c.52-.09,1-.19,1.55-.27,1.2-.22,2.41-.44,3.61-.64Q421.78,411.79,436,410l2.44-.3c1.86-.23,3.72-.44,5.58-.65l5.72-.6q4.28-.44,8.6-.82c2-.17,4-.34,6.06-.49,1.82-.14,3.64-.28,5.46-.4.94-.06,1.87-.13,2.81-.18,2.11-.13,4.2-.26,6.3-.37l.31,0,4.11-.2q4.09-.19,8.22-.33l2.44-.07c1.2,0,2.39-.08,3.58-.1l3.63-.07q5.46-.1,10.9-.1h0l4.54,0c1.18,0,2.35,0,3.53,0h.11c1.2,0,2.38,0,3.58.07l2.81.05c.94,0,1.86,0,2.81.08h.37c1.2,0,2.41.06,3.61.11l1.49.05,4.57.18,4.56.22h0l.66,0,3.86.2,5.37.34c2.77.19,5.54.4,8.31.61q2.28.18,4.56.39l4.55.41c1.52.14,3,.29,4.54.45l4.27.44.39,0c3,.33,6,.67,8.95,1.05s6.05.77,9.06,1.18,6,.86,9,1.31,6,.95,9,1.45,6,1,9,1.57h0l4.1.77c3.11.58,6.2,1.19,9.29,1.82,1.49.3,3,.61,4.47.94s3,.62,4.45.95h0c3,.65,5.91,1.32,8.86,2s5.93,1.4,8.88,2.14l1.93.48,3.38.86,5.35,1.41c2.32.62,4.62,1.25,6.92,1.9q8.79,2.43,17.48,5.14c1.44.45,2.88.9,4.31,1.37s2.66.84,4,1.27c1.56.5,3.13,1,4.69,1.54s2.87,1,4.3,1.46,2.63.89,3.93,1.36l3.48,1.22q2.73,1,5.44,2c1.26.45,2.52.93,3.78,1.39,1.58.59,3.15,1.18,4.72,1.8s2.83,1.08,4.24,1.63,2.82,1.1,4.22,1.67c1.24.48,2.47,1,3.71,1.48q4.45,1.8,8.88,3.7c1,.42,2,.86,3.08,1.3l.25.12c1,.42,2,.84,3,1.28.24.09.46.19.7.3l.29.13q7.1,3.09,14.1,6.39l.2.1.14.06c.68.31,1.36.64,2,1a5,5,0,0,1,.52.25l.54.25c1.35.64,2.67,1.27,4,1.92a1,1,0,0,1,.23.11l3.93,1.92,4.06,2c1.34.67,2.69,1.35,4,2,1.17.59,2.36,1.21,3.53,1.82l1.3.69c1,.49,1.93,1,2.9,1.52q2.14,1.13,4.29,2.29c3,1.63,6.05,3.29,9,5l2.83,1.6c1.19.68,2.38,1.36,3.56,2l.75.44.57.33c1,.56,2,1.13,2.94,1.71,1.3.77,2.6,1.53,3.9,2.31h0q7.74,4.65,15.35,9.51,3.81,2.43,7.58,4.92c2.78,1.84,5.53,3.7,8.29,5.58l1.14.79.42.29h0l2.33,1.61q3.28,2.29,6.54,4.63,1.77,1.26,3.51,2.54t3.64,2.67l2.69,2h0l1.4,1c.47.36.94.7,1.41,1.07q2,1.51,4,3.07l.14.1a.74.74,0,0,0,.12.09l3,2.35.2.15,2.11,1.66c.93.74,1.86,1.47,2.77,2.21,1.48,1.18,2.94,2.37,4.4,3.56l.3.24.66.55c.09.06.16.14.25.2,1.44,1.2,2.88,2.38,4.31,3.59,1,.87,2.09,1.75,3.13,2.63s2,1.69,3,2.55l2,1.75c.84.72,1.67,1.45,2.5,2.18l1.77,1.57s0,0,0,.06c.87.75,1.73,1.51,2.58,2.29,1.54,1.37,3.06,2.76,4.58,4.16s3,2.81,4.54,4.22h0l3.28,3.1q4.89,4.66,9.68,9.46,1.59,1.59,3.17,3.21c.76.76,1.5,1.52,2.24,2.29l2.19,2.27q2.49,2.58,5,5.21C964.86,597.68,966.23,599.15,967.58,600.64Z"/><path class="cls-1" d="M1740.2,450c-2.37,1-4.75,1.91-7.12,2.89s-4.83,2-7.23,3c-1.22.5-2.43,1-3.64,1.54q-2.18.92-4.33,1.86c-1,.44-2.07.89-3.09,1.34-2,.85-3.93,1.71-5.88,2.6-.68.3-1.37.6-2,.91-1.89.84-3.76,1.69-5.63,2.55-1.11.51-2.22,1-3.33,1.53q-11,5.07-21.75,10.39-3,1.51-6.06,3c-1.06.53-2.12,1.06-3.18,1.61q-5.89,3-11.73,6.07l-3,1.6-4.46,2.39c-1.07.57-2.14,1.15-3.2,1.74-1.59.85-3.16,1.71-4.73,2.58l-6.48,3.59-3.16,1.79-4.35,2.47-3.24,1.87-5.38,3.13q-2.14,1.26-4.28,2.53l-4.26,2.54c-1.64,1-3.26,2-4.89,2.94l-3.58,2.2q-4.8,2.94-9.54,5.93c-1,.62-2,1.26-3,1.89-.57.36-1.13.71-1.69,1.08-1.38.87-2.77,1.76-4.15,2.66-2.17,1.4-4.35,2.8-6.51,4.23-.91.59-1.82,1.18-2.72,1.78q-4.9,3.24-9.76,6.52-1.86,1.24-3.69,2.51-8.65,5.91-17.1,11.91l-2.64,1.9q-6.15,4.4-12.18,8.86c-1.62,1.2-3.24,2.4-4.84,3.61l-2.18,1.62q-11.81,8.88-23.19,17.93l-2.75,2.21q-9.09,7.26-17.86,14.61l-4.93,4.15c-3.94,3.34-7.82,6.67-11.68,10l-4,3.55q-6.75,5.94-13.32,11.9c-1.73,1.58-3.45,3.15-5.16,4.73q-2.31,2.11-4.57,4.23-6.57,6.13-13,12.25l-3.92,3.79q-2.61,2.53-5.18,5.07c-1.6,1.56-3.17,3.13-4.74,4.69q-5.29,5.28-10.43,10.54c-1.43,1.46-2.84,2.91-4.23,4.37q-5.21,5.38-10.24,10.75l-4,4.3-3.61,3.92q-3.15,3.42-6.22,6.82l-4.46,5c-1.48,1.66-2.94,3.32-4.39,5s-2.91,3.31-4.33,5q-4.28,4.95-8.41,9.84c-1,1.17-2,2.33-2.94,3.5l-1.16,1.38A514.59,514.59,0,0,0,1270.58,708a572,572,0,0,0-82-27.54A644.4,644.4,0,0,0,1120.74,667q-11.19-1.62-22.6-2.9l-2-.22q-22.25-2.45-45.25-3.59l-1.87-.1q-16.5-.78-33.35-.88l-1.38,0c-1,0-1.75,0-2.32,0s-1.36,0-2.33,0L1012,656c1.15-1.66,2.32-3.29,3.49-4.93.14-.19.27-.39.42-.58,1.14-1.6,2.31-3.19,3.48-4.78s2.18-3,3.28-4.42l1-1.29c.94-1.24,1.87-2.48,2.83-3.7q2.41-3.15,4.9-6.27c1.14-1.44,2.3-2.88,3.46-4.31,1.33-1.64,2.66-3.26,4-4.88,1.21-1.45,2.43-2.9,3.64-4.33l.42-.5.4-.47,2.94-3.41c1-1.23,2.12-2.44,3.19-3.66.16-.19.34-.39.52-.58q1.51-1.73,3.07-3.44c1.13-1.27,2.28-2.53,3.43-3.79q4.05-4.44,8.22-8.78,1.68-1.77,3.36-3.49c1.67-1.71,3.34-3.42,5-5.11q4.68-4.68,9.47-9.26,1.59-1.53,3.2-3,4.83-4.53,9.75-9c1.1-1,2.19-2,3.29-2.94h0l.59-.52c1.8-1.58,3.6-3.15,5.42-4.71q5-4.27,10-8.44t10.55-8.46c1.78-1.38,3.55-2.76,5.35-4.14s3.59-2.72,5.4-4.08,3.62-2.68,5.45-4c1.63-1.2,3.28-2.38,4.94-3.56l1.21-.86c1.63-1.16,3.25-2.3,4.88-3.43l3.72-2.56,4.81-3.25q9.64-6.45,19.53-12.52l5-3q5-3,10-5.88h0l2.06-1.18,2-1.16,4.13-2.31q2.07-1.15,4.14-2.28c1.38-.76,2.77-1.5,4.16-2.25l4.17-2.22,4.2-2.18,4.18-2.14a.09.09,0,0,0,0,0l4.21-2.11c2.62-1.31,5.26-2.59,7.91-3.86,1.62-.77,3.25-1.55,4.88-2.31,2.85-1.35,5.73-2.66,8.6-4l4.33-1.93,4.34-1.9,4.36-1.86c2.09-.89,4.18-1.76,6.29-2.63s4.19-1.71,6.3-2.55q4.21-1.68,8.46-3.3c2.82-1.09,5.66-2.15,8.5-3.19s5.69-2.05,8.56-3.06l4.3-1.48c2.86-1,5.74-1.94,8.62-2.88q3.46-1.14,7-2.22c2.09-.66,4.2-1.3,6.3-1.94s4.2-1.26,6.31-1.87,4.37-1.26,6.56-1.87h0c2.91-.82,5.84-1.62,8.77-2.39q11-2.91,22.12-5.43,5.83-1.32,11.7-2.52l3.91-.8L1391,417c2.61-.5,5.22-1,7.85-1.47l3.92-.7c3-.53,6-1,9-1.51l5.55-.86,5.18-.76.67-.09,5.3-.73c1.85-.25,3.71-.48,5.57-.72,2.11-.26,4.22-.52,6.34-.75l4-.44,3.58-.38h.08l3.84-.39,4.58-.42.64,0c2.09-.18,4.18-.36,6.27-.52l3.46-.26c2.3-.17,4.62-.32,6.92-.46l3.47-.19q2.92-.18,5.87-.3,3.32-.17,6.63-.27c1-.05,2-.08,2.94-.1,2.09-.06,4.18-.12,6.27-.16s3.94-.08,5.9-.1h.37c2.24,0,4.47,0,6.71,0h0c3.63,0,7.24,0,10.87.1l3.64.07c1.2,0,2.42.06,3.62.1l2.66.07,3.7.14,3.47.15c1.56.07,3.13.14,4.69.23q3.63.19,7.26.42c2.42.16,4.83.32,7.26.52s4.83.37,7.25.59,4.83.44,7.24.69,4.83.49,7.24.76q19.9,2.25,39.68,5.8c2.2.4,4.41.81,6.6,1.24q27.21,5.21,54,13,3.53,1,7,2.1c2.34.72,4.69,1.45,7,2.19s4.68,1.51,7,2.29,4.67,1.58,7,2.38,4.64,1.63,7,2.47,4.63,1.7,6.94,2.56,4.59,1.75,6.89,2.66h0q2.4.93,4.78,1.89C1736.52,448.5,1738.36,449.26,1740.2,450Z"/><path class="cls-1" d="M1192.85,918.12l-47.51,47.52a13.69,13.69,0,0,1-19.34,0l-98.69-99a2.87,2.87,0,0,0-4.57.63L982.59,937.2A13.69,13.69,0,0,1,958,935.46L903.69,800.09l-1.68-4.2-17.37-43.26L883,748.48l-3.17-7.91c2.53-.51,5.07-1,7.63-1.5a1.06,1.06,0,0,0,.23-.05c.5-.08,1-.18,1.49-.28l1.48-.26,4.48-.82A679.65,679.65,0,0,1,1010,727.79v0H1014v0a710.21,710.21,0,0,1,83.21,5.13q14.16,1.73,27.87,4.06,5.61.94,11.15,2,18.06,3.4,35.37,7.85a13.22,13.22,0,0,1-6.25,7.88l-16.63,9.55-21.84,12.56-14.73,8.45-17.68,10.16a2.91,2.91,0,0,0-.78.66,3,3,0,0,0,.19,3.95l98.9,98.73A13.63,13.63,0,0,1,1192.85,918.12Z"/><path class="cls-1" d="M1192.84,1324.34l-47.5,47.52a13.65,13.65,0,0,1-19.34,0l-98.67-99a2.92,2.92,0,0,0-4.6.61l-40.16,69.94a13.67,13.67,0,0,1-24.54-1.72L832.72,1029.53a13.67,13.67,0,0,1,17.74-17.79l313.16,124.64a13.68,13.68,0,0,1,1.75,24.57l-70.86,40.72a2.91,2.91,0,0,0-.61,4.59l98.92,98.72A13.68,13.68,0,0,1,1192.84,1324.34Z"/><path class="cls-1" d="M1192.84,1730.56l-47.5,47.52a13.66,13.66,0,0,1-19.34,0l-98.67-99a2.93,2.93,0,0,0-4.6.62l-40.16,69.93a13.67,13.67,0,0,1-24.54-1.72L832.72,1435.76A13.67,13.67,0,0,1,850.46,1418l313.16,124.65a13.68,13.68,0,0,1,1.75,24.57l-70.86,40.71a2.92,2.92,0,0,0-.61,4.6l98.92,98.72A13.68,13.68,0,0,1,1192.84,1730.56Z"/><path class="cls-1" d="M1165.38,1973.38l-70.88,40.71a2.94,2.94,0,0,0-.59,4.62l1.41,1.41q-38.68,3.69-81.29,3.88H1010a852.74,852.74,0,0,1-106.9-6.76L832.74,1842a13.66,13.66,0,0,1,17.7-17.8l313.16,124.65A13.68,13.68,0,0,1,1165.38,1973.38Z"/><path class="cls-1" d="M1425,1861.23a382.1,382.1,0,0,1-93.84,84.81L1284.6,1830.2a13.66,13.66,0,0,1,17.71-17.8Z"/><path class="cls-1" d="M1546.54,1447.9c-3.2,75.21-11.69,143.67-26.37,205l-41-41.13a2.91,2.91,0,0,0-4.57.6l-40.17,70a13.69,13.69,0,0,1-24.55-1.74L1284.6,1368.48c-4.48-11.14,6.57-22.27,17.71-17.81Z"/><path class="cls-1" d="M1536.5,1207.58l-57.32-57.5a2.89,2.89,0,0,0-4.57.59l-40.17,69.92a13.68,13.68,0,0,1-24.55-1.69L1284.6,906.75a13.65,13.65,0,0,1,17.71-17.8l145,57.74C1491.54,1017.57,1521.39,1104.94,1536.5,1207.58Z"/><path class="cls-1" d="M741,1968.64l-2.55,2.55c-110.27-52.31-180.75-142.73-220.55-267.65l193.84,77.14a13.67,13.67,0,0,1,1.79,24.55l-70.88,40.71a3,3,0,0,0-.6,4.62L741,1949.28A13.66,13.66,0,0,1,741,1968.64Z"/><path class="cls-1" d="M741,1506.91l-47.51,47.52a13.7,13.7,0,0,1-19.36,0l-98.67-99a2.86,2.86,0,0,0-4.56.63L530.71,1526a13.68,13.68,0,0,1-24.55-1.74l-28.47-70.92q-1.8-37.59-1.75-77.46a1183.61,1183.61,0,0,1,8.73-147.29L711.73,1319a13.67,13.67,0,0,1,1.79,24.55l-70.88,40.72a2.94,2.94,0,0,0-.6,4.61L741,1487.56A13.65,13.65,0,0,1,741,1506.91Z"/><path class="cls-1" d="M741,1045.19l-47.51,47.51a13.7,13.7,0,0,1-19.36,0l-98.67-99a2.9,2.9,0,0,0-4.56.59l-40.18,70a13.48,13.48,0,0,1-11.54,6.84c32.13-96.9,82-174.54,149-231.22l1.93.76,41.65,16.58a13.64,13.64,0,0,1,8,16.74,13.41,13.41,0,0,1-6.25,7.82L642.64,922.5a2.93,2.93,0,0,0-.6,4.61L741,1025.83A13.66,13.66,0,0,1,741,1045.19Z"/><path class="cls-2" d="M497.45,1110.24h0Z"/><path class="cls-2" d="M497.45,1110.24h0Z"/></svg>