<svg width="168" height="24" viewBox="0 0 168 24" fill="none" xmlns="http://www.w3.org/2000/svg">
<path d="M6.24023 16.7891L5.34668 20.4512C5.01465 21.8379 4.83398 22.5703 4.80469 22.6484C4.78516 22.7168 4.72168 22.7949 4.61426 22.8828C4.5166 22.9609 4.40918 23 4.29199 23H1.11328C0.751953 23 0.571289 22.8291 0.571289 22.4873C0.571289 22.4678 0.581055 22.4189 0.600586 22.3408L5.52246 3.53223C6.0498 1.49121 7.44141 0.470703 9.69727 0.470703C11.9434 0.470703 13.3301 1.49121 13.8574 3.53223L18.8086 22.4873C18.8086 22.8291 18.6279 23 18.2666 23H15.0879C14.7852 23 14.5947 22.834 14.5166 22.502L13.1396 16.7891H6.24023ZM12.334 13.376L10.7959 7.0332C10.3369 5.1582 10.0781 4.18164 10.0195 4.10352C9.96094 4.02539 9.85352 3.98633 9.69727 3.98633C9.46289 3.98633 9.32129 4.06934 9.27246 4.23535L7.0459 13.376H12.334ZM35.2002 22.3701C35.2002 22.5361 35.1416 22.6826 35.0244 22.8096C34.9072 22.9365 34.7656 23 34.5996 23H31.8457C31.6797 23 31.5381 22.9365 31.4209 22.8096C31.3037 22.6826 31.2451 22.5361 31.2451 22.3701V12.585C31.2451 11.2178 31.0986 10.3193 30.8057 9.88965C30.5127 9.4502 29.8096 9.23047 28.6963 9.23047C27.7979 9.23047 26.665 9.5918 25.2979 10.3145V22.3701C25.2979 22.5361 25.2393 22.6826 25.1221 22.8096C25.0049 22.9365 24.8633 23 24.6973 23H21.9434C21.7871 23 21.6455 22.9365 21.5186 22.8096C21.4014 22.6826 21.3428 22.5361 21.3428 22.3701V6.68164C21.3428 6.51563 21.4014 6.37402 21.5186 6.25684C21.6357 6.13965 21.7773 6.08105 21.9434 6.08105H24.5508C24.7168 6.08105 24.8584 6.13965 24.9756 6.25684C25.0928 6.37402 25.1514 6.51563 25.1514 6.68164V7.31152C25.9424 6.80371 26.6846 6.4375 27.3779 6.21289C28.0713 5.98828 28.9502 5.87598 30.0146 5.87598C31.7725 5.87598 33.0762 6.37891 33.9258 7.38477C34.7754 8.38086 35.2002 10.1143 35.2002 12.585V22.3701ZM51.6357 22.3994C51.6357 22.5654 51.5771 22.707 51.46 22.8242C51.3428 22.9414 51.2012 23 51.0352 23H48.4863C48.3203 23 48.1787 22.9414 48.0615 22.8242C47.9443 22.707 47.8857 22.5654 47.8857 22.3994V21.916C46.4404 22.7949 45.0293 23.2344 43.6523 23.2344C41.9824 23.2344 40.6982 22.8145 39.7998 21.9746C38.9111 21.1348 38.4668 19.8848 38.4668 18.2246V18.1074C38.4668 16.3594 39.0479 15.0605 40.21 14.2109C41.3721 13.3516 43.2324 12.9219 45.791 12.9219H47.6807V11.6035C47.6807 10.666 47.4707 10.0264 47.0508 9.68457C46.6406 9.34277 45.9717 9.17188 45.0439 9.17188C44.1357 9.17188 43.2666 9.19629 42.4365 9.24512L40.1514 9.40625H40.0049C39.6436 9.40625 39.4629 9.23535 39.4629 8.89355V6.97461C39.4629 6.76953 39.5361 6.6084 39.6826 6.49121C39.8389 6.36426 40.4883 6.23242 41.6309 6.0957C42.7832 5.94922 43.9209 5.87598 45.0439 5.87598C49.4385 5.87598 51.6357 7.78516 51.6357 11.6035V22.3994ZM47.6807 19.25V15.5586H45.791C44.6289 15.5586 43.7793 15.7295 43.2422 16.0713C42.7148 16.4131 42.4512 17.0918 42.4512 18.1074V18.2246C42.4512 18.9082 42.6025 19.3916 42.9053 19.6748C43.2178 19.9482 43.7891 20.085 44.6191 20.085C45.625 20.085 46.6455 19.8066 47.6807 19.25ZM69.3896 22.3701C69.3896 22.5361 69.3311 22.6826 69.2139 22.8096C69.0967 22.9365 68.9551 23 68.7891 23H66.0352C65.8691 23 65.7275 22.9365 65.6104 22.8096C65.4932 22.6826 65.4346 22.5361 65.4346 22.3701V12.585C65.4346 11.2178 65.2881 10.3193 64.9951 9.88965C64.7021 9.4502 63.999 9.23047 62.8857 9.23047C61.9873 9.23047 60.8545 9.5918 59.4873 10.3145V22.3701C59.4873 22.5361 59.4287 22.6826 59.3115 22.8096C59.1943 22.9365 59.0527 23 58.8867 23H56.1328C55.9766 23 55.835 22.9365 55.708 22.8096C55.5908 22.6826 55.5322 22.5361 55.5322 22.3701V6.68164C55.5322 6.51563 55.5908 6.37402 55.708 6.25684C55.8252 6.13965 55.9668 6.08105 56.1328 6.08105H58.7402C58.9062 6.08105 59.0479 6.13965 59.165 6.25684C59.2822 6.37402 59.3408 6.51563 59.3408 6.68164V7.31152C60.1318 6.80371 60.874 6.4375 61.5674 6.21289C62.2607 5.98828 63.1396 5.87598 64.2041 5.87598C65.9619 5.87598 67.2656 6.37891 68.1152 7.38477C68.9648 8.38086 69.3896 10.1143 69.3896 12.585V22.3701ZM85.8252 22.3994C85.8252 22.5654 85.7666 22.707 85.6494 22.8242C85.5322 22.9414 85.3906 23 85.2246 23H82.6758C82.5098 23 82.3682 22.9414 82.251 22.8242C82.1338 22.707 82.0752 22.5654 82.0752 22.3994V21.916C80.6299 22.7949 79.2188 23.2344 77.8418 23.2344C76.1719 23.2344 74.8877 22.8145 73.9893 21.9746C73.1006 21.1348 72.6562 19.8848 72.6562 18.2246V18.1074C72.6562 16.3594 73.2373 15.0605 74.3994 14.2109C75.5615 13.3516 77.4219 12.9219 79.9805 12.9219H81.8701V11.6035C81.8701 10.666 81.6602 10.0264 81.2402 9.68457C80.8301 9.34277 80.1611 9.17188 79.2334 9.17188C78.3252 9.17188 77.4561 9.19629 76.626 9.24512L74.3408 9.40625H74.1943C73.833 9.40625 73.6523 9.23535 73.6523 8.89355V6.97461C73.6523 6.76953 73.7256 6.6084 73.8721 6.49121C74.0283 6.36426 74.6777 6.23242 75.8203 6.0957C76.9727 5.94922 78.1104 5.87598 79.2334 5.87598C83.6279 5.87598 85.8252 7.78516 85.8252 11.6035V22.3994ZM81.8701 19.25V15.5586H79.9805C78.8184 15.5586 77.9688 15.7295 77.4316 16.0713C76.9043 16.4131 76.6406 17.0918 76.6406 18.1074V18.2246C76.6406 18.9082 76.792 19.3916 77.0947 19.6748C77.4072 19.9482 77.9785 20.085 78.8086 20.085C79.8145 20.085 80.835 19.8066 81.8701 19.25ZM99.4043 9.46484C97.7246 9.23047 96.0742 9.11328 94.4531 9.11328C93.7109 9.11328 93.1787 9.21094 92.8564 9.40625C92.5342 9.5918 92.373 9.91406 92.373 10.373C92.373 10.7051 92.5684 10.9883 92.959 11.2227L97.5146 14.0059C98.4521 14.5723 99.165 15.1973 99.6533 15.8809C100.142 16.5645 100.386 17.458 100.386 18.5615C100.386 19.9678 99.8633 21.1006 98.8184 21.96C97.7832 22.8096 96.3477 23.2344 94.5117 23.2344C93.3398 23.2344 92.1484 23.1514 90.9375 22.9854C89.7266 22.8193 89.0283 22.6631 88.8428 22.5166C88.6572 22.3701 88.5645 22.1797 88.5645 21.9453V20.1436C88.5645 20.0264 88.6133 19.9189 88.7109 19.8213C88.8184 19.7236 88.9404 19.6748 89.0771 19.6748H89.1943C90.9619 19.8896 92.6416 19.9971 94.2334 19.9971C94.9268 19.9971 95.4541 19.9043 95.8154 19.7188C96.1865 19.5234 96.3721 19.1377 96.3721 18.5615C96.3721 18.0928 96.0596 17.6631 95.4346 17.2725L90.9375 14.5039C90.1562 14.0254 89.541 13.4248 89.0918 12.7021C88.6426 11.9697 88.418 11.1934 88.418 10.373C88.418 7.375 90.3174 5.87598 94.1162 5.87598C95.5029 5.87598 96.7529 5.97363 97.8662 6.16895C98.9893 6.35449 99.624 6.50586 99.7705 6.62305C99.9268 6.74023 100.005 6.9209 100.005 7.16504V8.89355C100.005 9.27441 99.8438 9.46484 99.5215 9.46484H99.4043Z" fill="#FF8E01"/>
<path d="M107.563 22.3994C107.563 22.5654 107.505 22.707 107.388 22.8242C107.271 22.9414 107.129 23 106.963 23H104.297C104.131 23 103.989 22.9414 103.872 22.8242C103.755 22.707 103.696 22.5654 103.696 22.3994V19.0156C103.696 18.8496 103.755 18.7129 103.872 18.6055C103.989 18.498 104.131 18.4443 104.297 18.4443H106.963C107.129 18.4443 107.271 18.498 107.388 18.6055C107.505 18.7129 107.563 18.8496 107.563 19.0156V22.3994Z" fill="#7BA1FF"/>
<path d="M124.805 22.2236C124.805 22.4482 124.707 22.6143 124.512 22.7217C124.316 22.8193 123.755 22.9219 122.827 23.0293C121.909 23.1465 120.713 23.2051 119.238 23.2051C116.797 23.2051 114.863 22.4189 113.438 20.8467C112.021 19.2744 111.313 16.9746 111.313 13.9473V9.77246C111.313 6.72559 112.017 4.4209 113.423 2.8584C114.839 1.28613 116.777 0.5 119.238 0.5C120.215 0.5 121.318 0.578125 122.549 0.734375C123.789 0.890625 124.463 1.00293 124.57 1.07129C124.688 1.12988 124.746 1.22754 124.746 1.36426V2.90234C124.746 3.11719 124.629 3.22461 124.395 3.22461H124.307C122.139 3.04883 120.459 2.96094 119.268 2.96094C115.781 2.96094 114.038 5.23145 114.038 9.77246V13.9473C114.038 16.1934 114.482 17.8877 115.371 19.0303C116.27 20.1729 117.568 20.7441 119.268 20.7441C120.02 20.7441 120.845 20.7197 121.743 20.6709L124.219 20.5098H124.336C124.648 20.5098 124.805 20.6709 124.805 20.9932V22.2236ZM130.84 22.3994C130.84 22.5557 130.786 22.6973 130.679 22.8242C130.581 22.9414 130.454 23 130.298 23H128.745C128.589 23 128.457 22.9414 128.35 22.8242C128.252 22.707 128.203 22.5654 128.203 22.3994V1.0127C128.203 0.631836 128.384 0.441406 128.745 0.441406H130.298C130.659 0.441406 130.84 0.631836 130.84 1.0127V22.3994ZM138.252 3.25391C138.252 3.41992 138.193 3.56152 138.076 3.67871C137.959 3.7959 137.817 3.85449 137.651 3.85449H136.128C135.962 3.85449 135.82 3.7959 135.703 3.67871C135.586 3.56152 135.527 3.41992 135.527 3.25391V0.866211C135.527 0.700195 135.586 0.558594 135.703 0.441406C135.82 0.324219 135.962 0.265625 136.128 0.265625H137.651C137.817 0.265625 137.959 0.324219 138.076 0.441406C138.193 0.558594 138.252 0.700195 138.252 0.866211V3.25391ZM138.193 22.3994C138.193 22.5654 138.135 22.707 138.018 22.8242C137.9 22.9414 137.759 23 137.593 23H136.157C135.991 23 135.85 22.9414 135.732 22.8242C135.615 22.707 135.557 22.5654 135.557 22.3994V7.10645C135.557 6.94043 135.615 6.79883 135.732 6.68164C135.85 6.56445 135.991 6.50586 136.157 6.50586H137.593C137.759 6.50586 137.9 6.56445 138.018 6.68164C138.135 6.79883 138.193 6.94043 138.193 7.10645V22.3994ZM152.842 22.2236C152.842 22.5557 152.734 22.7559 152.52 22.8242C152.305 22.8926 151.777 22.9707 150.938 23.0586C150.098 23.1562 149.282 23.2051 148.491 23.2051C146.499 23.2051 144.932 22.5557 143.789 21.2568C142.656 19.958 142.09 18.1807 142.09 15.9248V13.5811C142.09 11.3154 142.656 9.5332 143.789 8.23438C144.922 6.93555 146.489 6.28613 148.491 6.28613C149.478 6.28613 150.391 6.34473 151.23 6.46191C152.07 6.5791 152.549 6.68652 152.666 6.78418C152.783 6.87207 152.842 7.03809 152.842 7.28223V8.36621C152.842 8.65918 152.671 8.80566 152.329 8.80566H152.212C150.972 8.66895 149.731 8.60059 148.491 8.60059C145.991 8.60059 144.741 10.2607 144.741 13.5811V15.9248C144.741 19.2451 145.991 20.9053 148.491 20.9053C149.204 20.9053 149.854 20.8809 150.439 20.832L152.212 20.6855H152.329C152.671 20.6855 152.842 20.8369 152.842 21.1396V22.2236ZM160.562 14.2988L167.227 22.3408C167.285 22.3994 167.314 22.4873 167.314 22.6045C167.314 22.8682 167.207 23 166.992 23H164.824C164.639 23 164.502 22.9707 164.414 22.9121C164.336 22.8438 163.657 22.0186 162.378 20.4365L158.159 15.2363V22.3994C158.159 22.5654 158.101 22.707 157.983 22.8242C157.866 22.9414 157.729 23 157.573 23H156.123C155.957 23 155.815 22.9414 155.698 22.8242C155.581 22.707 155.522 22.5654 155.522 22.3994V1.04199C155.522 0.875977 155.581 0.734375 155.698 0.617188C155.815 0.5 155.957 0.441406 156.123 0.441406H157.573C157.729 0.441406 157.866 0.5 157.983 0.617188C158.101 0.734375 158.159 0.875977 158.159 1.04199V13.5225L164.297 6.62305C164.375 6.54492 164.531 6.50586 164.766 6.50586H166.86C167.163 6.50586 167.314 6.61328 167.314 6.82812C167.314 6.93555 167.295 7.01367 167.256 7.0625L160.562 14.2988Z" fill="white"/>
</svg>
