<svg width="73" height="11" viewBox="0 0 73 11" fill="none" xmlns="http://www.w3.org/2000/svg">
<path d="M2.7041 7.30859L2.31689 8.89551C2.17301 9.49642 2.09473 9.8138 2.08203 9.84766C2.07357 9.87728 2.04606 9.91113 1.99951 9.94922C1.95719 9.98307 1.91064 10 1.85986 10H0.482422C0.325846 10 0.247559 9.92594 0.247559 9.77783C0.247559 9.76937 0.25179 9.74821 0.260254 9.71436L2.39307 1.56396C2.62158 0.679525 3.22461 0.237305 4.20215 0.237305C5.17546 0.237305 5.77637 0.679525 6.00488 1.56396L8.15039 9.77783C8.15039 9.92594 8.0721 10 7.91553 10H6.53809C6.4069 10 6.32438 9.92806 6.29053 9.78418L5.69385 7.30859H2.7041ZM5.34473 5.82959L4.67822 3.08105C4.47933 2.26855 4.36719 1.84538 4.3418 1.81152C4.31641 1.77767 4.26986 1.76074 4.20215 1.76074C4.10059 1.76074 4.03923 1.79671 4.01807 1.86865L3.05322 5.82959H5.34473ZM15.2534 9.72705C15.2534 9.79899 15.228 9.86247 15.1772 9.91748C15.1265 9.97249 15.0651 10 14.9932 10H13.7998C13.7279 10 13.6665 9.97249 13.6157 9.91748C13.5649 9.86247 13.5396 9.79899 13.5396 9.72705V5.48682C13.5396 4.89437 13.4761 4.50505 13.3491 4.31885C13.2222 4.12842 12.9175 4.0332 12.4351 4.0332C12.0457 4.0332 11.5549 4.18978 10.9624 4.50293V9.72705C10.9624 9.79899 10.937 9.86247 10.8862 9.91748C10.8354 9.97249 10.7741 10 10.7021 10H9.50879C9.44108 10 9.37972 9.97249 9.32471 9.91748C9.27393 9.86247 9.24854 9.79899 9.24854 9.72705V2.92871C9.24854 2.85677 9.27393 2.79541 9.32471 2.74463C9.37549 2.69385 9.43685 2.66846 9.50879 2.66846H10.6387C10.7106 2.66846 10.772 2.69385 10.8228 2.74463C10.8735 2.79541 10.8989 2.85677 10.8989 2.92871V3.20166C11.2417 2.98161 11.5633 2.82292 11.8638 2.72559C12.1642 2.62826 12.5451 2.57959 13.0063 2.57959C13.7681 2.57959 14.333 2.79753 14.7012 3.2334C15.0693 3.66504 15.2534 4.41618 15.2534 5.48682V9.72705ZM22.3755 9.73975C22.3755 9.81169 22.3501 9.87305 22.2993 9.92383C22.2485 9.97461 22.1872 10 22.1152 10H21.0107C20.9388 10 20.8774 9.97461 20.8267 9.92383C20.7759 9.87305 20.7505 9.81169 20.7505 9.73975V9.53027C20.1242 9.91113 19.5127 10.1016 18.916 10.1016C18.1924 10.1016 17.6359 9.9196 17.2466 9.55566C16.8615 9.19173 16.6689 8.65007 16.6689 7.93066V7.87988C16.6689 7.1224 16.9207 6.55957 17.4243 6.19141C17.9279 5.81901 18.734 5.63281 19.8428 5.63281H20.6616V5.06152C20.6616 4.65527 20.5706 4.37809 20.3887 4.22998C20.2109 4.08187 19.9211 4.00781 19.519 4.00781C19.1255 4.00781 18.7489 4.01839 18.3892 4.03955L17.3989 4.10938H17.3354C17.1789 4.10938 17.1006 4.03532 17.1006 3.88721V3.05566C17.1006 2.9668 17.1323 2.89697 17.1958 2.84619C17.2635 2.79118 17.5449 2.73405 18.04 2.6748C18.5394 2.61133 19.0324 2.57959 19.519 2.57959C21.4233 2.57959 22.3755 3.4069 22.3755 5.06152V9.73975ZM20.6616 8.375V6.77539H19.8428C19.3392 6.77539 18.971 6.84945 18.7383 6.99756C18.5098 7.14567 18.3955 7.43978 18.3955 7.87988V7.93066C18.3955 8.22689 18.4611 8.43636 18.5923 8.55908C18.7277 8.67757 18.9753 8.73682 19.335 8.73682C19.7708 8.73682 20.2131 8.61621 20.6616 8.375ZM30.0688 9.72705C30.0688 9.79899 30.0435 9.86247 29.9927 9.91748C29.9419 9.97249 29.8805 10 29.8086 10H28.6152C28.5433 10 28.4819 9.97249 28.4312 9.91748C28.3804 9.86247 28.355 9.79899 28.355 9.72705V5.48682C28.355 4.89437 28.2915 4.50505 28.1646 4.31885C28.0376 4.12842 27.7329 4.0332 27.2505 4.0332C26.8612 4.0332 26.3703 4.18978 25.7778 4.50293V9.72705C25.7778 9.79899 25.7524 9.86247 25.7017 9.91748C25.6509 9.97249 25.5895 10 25.5176 10H24.3242C24.2565 10 24.1951 9.97249 24.1401 9.91748C24.0894 9.86247 24.064 9.79899 24.064 9.72705V2.92871C24.064 2.85677 24.0894 2.79541 24.1401 2.74463C24.1909 2.69385 24.2523 2.66846 24.3242 2.66846H25.4541C25.526 2.66846 25.5874 2.69385 25.6382 2.74463C25.689 2.79541 25.7144 2.85677 25.7144 2.92871V3.20166C26.0571 2.98161 26.3787 2.82292 26.6792 2.72559C26.9797 2.62826 27.3605 2.57959 27.8218 2.57959C28.5835 2.57959 29.1484 2.79753 29.5166 3.2334C29.8848 3.66504 30.0688 4.41618 30.0688 5.48682V9.72705ZM37.1909 9.73975C37.1909 9.81169 37.1655 9.87305 37.1147 9.92383C37.064 9.97461 37.0026 10 36.9307 10H35.8262C35.7542 10 35.6929 9.97461 35.6421 9.92383C35.5913 9.87305 35.5659 9.81169 35.5659 9.73975V9.53027C34.9396 9.91113 34.3281 10.1016 33.7314 10.1016C33.0078 10.1016 32.4513 9.9196 32.062 9.55566C31.6769 9.19173 31.4844 8.65007 31.4844 7.93066V7.87988C31.4844 7.1224 31.7362 6.55957 32.2397 6.19141C32.7433 5.81901 33.5495 5.63281 34.6582 5.63281H35.4771V5.06152C35.4771 4.65527 35.3861 4.37809 35.2041 4.22998C35.0264 4.08187 34.7365 4.00781 34.3345 4.00781C33.9409 4.00781 33.5643 4.01839 33.2046 4.03955L32.2144 4.10938H32.1509C31.9943 4.10938 31.916 4.03532 31.916 3.88721V3.05566C31.916 2.9668 31.9478 2.89697 32.0112 2.84619C32.0789 2.79118 32.3604 2.73405 32.8555 2.6748C33.3548 2.61133 33.8478 2.57959 34.3345 2.57959C36.2388 2.57959 37.1909 3.4069 37.1909 5.06152V9.73975ZM35.4771 8.375V6.77539H34.6582C34.1546 6.77539 33.7865 6.84945 33.5537 6.99756C33.3252 7.14567 33.2109 7.43978 33.2109 7.87988V7.93066C33.2109 8.22689 33.2765 8.43636 33.4077 8.55908C33.5431 8.67757 33.7907 8.73682 34.1504 8.73682C34.5863 8.73682 35.0285 8.61621 35.4771 8.375ZM43.0752 4.13477C42.3473 4.0332 41.6322 3.98242 40.9297 3.98242C40.6081 3.98242 40.3774 4.02474 40.2378 4.10938C40.0981 4.18978 40.0283 4.32943 40.0283 4.52832C40.0283 4.6722 40.113 4.79492 40.2822 4.89648L42.2563 6.10254C42.6626 6.34798 42.9715 6.61882 43.1831 6.91504C43.3947 7.21126 43.5005 7.59847 43.5005 8.07666C43.5005 8.68604 43.2741 9.17692 42.8213 9.54932C42.3727 9.91748 41.7507 10.1016 40.9551 10.1016C40.4473 10.1016 39.931 10.0656 39.4062 9.99365C38.8815 9.92171 38.5789 9.854 38.4985 9.79053C38.4181 9.72705 38.3779 9.64453 38.3779 9.54297V8.76221C38.3779 8.71143 38.3991 8.66488 38.4414 8.62256C38.488 8.58024 38.5409 8.55908 38.6001 8.55908H38.6509C39.4168 8.65218 40.1447 8.69873 40.8345 8.69873C41.1349 8.69873 41.3634 8.65853 41.52 8.57812C41.6808 8.49349 41.7612 8.32633 41.7612 8.07666C41.7612 7.87354 41.6258 7.68734 41.355 7.51807L39.4062 6.31836C39.0677 6.111 38.8011 5.85075 38.6064 5.5376C38.4118 5.22021 38.3145 4.88379 38.3145 4.52832C38.3145 3.22917 39.1375 2.57959 40.7837 2.57959C41.3846 2.57959 41.9263 2.62191 42.4087 2.70654C42.8953 2.78695 43.1704 2.85254 43.2339 2.90332C43.3016 2.9541 43.3354 3.03239 43.3354 3.13818V3.88721C43.3354 4.05225 43.2656 4.13477 43.126 4.13477H43.0752Z" fill="#FF8E01"/>
<path d="M46.6108 9.73975C46.6108 9.81169 46.5854 9.87305 46.5347 9.92383C46.4839 9.97461 46.4225 10 46.3506 10H45.1953C45.1234 10 45.062 9.97461 45.0112 9.92383C44.9604 9.87305 44.9351 9.81169 44.9351 9.73975V8.27344C44.9351 8.2015 44.9604 8.14225 45.0112 8.0957C45.062 8.04915 45.1234 8.02588 45.1953 8.02588H46.3506C46.4225 8.02588 46.4839 8.04915 46.5347 8.0957C46.5854 8.14225 46.6108 8.2015 46.6108 8.27344V9.73975Z" fill="#7BA1FF"/>
<path d="M54.082 9.66357C54.082 9.7609 54.0397 9.83285 53.9551 9.87939C53.8704 9.92171 53.6271 9.96615 53.2251 10.0127C52.8273 10.0635 52.3089 10.0889 51.6699 10.0889C50.612 10.0889 49.7741 9.74821 49.1562 9.06689C48.5426 8.38558 48.2358 7.389 48.2358 6.07715V4.26807C48.2358 2.94775 48.5405 1.94906 49.1499 1.27197C49.7635 0.590658 50.6035 0.25 51.6699 0.25C52.0931 0.25 52.5713 0.283854 53.1045 0.351562C53.6419 0.419271 53.9339 0.467936 53.9805 0.497559C54.0312 0.522949 54.0566 0.565267 54.0566 0.624512V1.29102C54.0566 1.38411 54.0059 1.43066 53.9043 1.43066H53.8662C52.9268 1.35449 52.1989 1.31641 51.6826 1.31641C50.1719 1.31641 49.4165 2.30029 49.4165 4.26807V6.07715C49.4165 7.05046 49.609 7.78467 49.9941 8.27979C50.3835 8.7749 50.9463 9.02246 51.6826 9.02246C52.0085 9.02246 52.366 9.01188 52.7554 8.99072L53.8281 8.9209H53.8789C54.0143 8.9209 54.082 8.99072 54.082 9.13037V9.66357ZM56.6973 9.73975C56.6973 9.80745 56.674 9.86882 56.6274 9.92383C56.5851 9.97461 56.5301 10 56.4624 10H55.7896C55.7218 10 55.6647 9.97461 55.6182 9.92383C55.5758 9.87305 55.5547 9.81169 55.5547 9.73975V0.472168C55.5547 0.307129 55.633 0.224609 55.7896 0.224609H56.4624C56.619 0.224609 56.6973 0.307129 56.6973 0.472168V9.73975ZM59.9092 1.44336C59.9092 1.5153 59.8838 1.57666 59.833 1.62744C59.7822 1.67822 59.7209 1.70361 59.6489 1.70361H58.9888C58.9168 1.70361 58.8555 1.67822 58.8047 1.62744C58.7539 1.57666 58.7285 1.5153 58.7285 1.44336V0.408691C58.7285 0.336751 58.7539 0.275391 58.8047 0.224609C58.8555 0.173828 58.9168 0.148438 58.9888 0.148438H59.6489C59.7209 0.148438 59.7822 0.173828 59.833 0.224609C59.8838 0.275391 59.9092 0.336751 59.9092 0.408691V1.44336ZM59.8838 9.73975C59.8838 9.81169 59.8584 9.87305 59.8076 9.92383C59.7568 9.97461 59.6955 10 59.6235 10H59.0015C58.9295 10 58.8682 9.97461 58.8174 9.92383C58.7666 9.87305 58.7412 9.81169 58.7412 9.73975V3.11279C58.7412 3.04085 58.7666 2.97949 58.8174 2.92871C58.8682 2.87793 58.9295 2.85254 59.0015 2.85254H59.6235C59.6955 2.85254 59.7568 2.87793 59.8076 2.92871C59.8584 2.97949 59.8838 3.04085 59.8838 3.11279V9.73975ZM66.2314 9.66357C66.2314 9.80745 66.1849 9.89421 66.0918 9.92383C65.9987 9.95345 65.7702 9.9873 65.4062 10.0254C65.0423 10.0677 64.689 10.0889 64.3462 10.0889C63.4829 10.0889 62.8037 9.80745 62.3086 9.24463C61.8177 8.6818 61.5723 7.91162 61.5723 6.93408V5.91846C61.5723 4.93669 61.8177 4.16439 62.3086 3.60156C62.7995 3.03874 63.4787 2.75732 64.3462 2.75732C64.7736 2.75732 65.1693 2.78271 65.5332 2.8335C65.8971 2.88428 66.1045 2.93083 66.1553 2.97314C66.2061 3.01123 66.2314 3.08317 66.2314 3.18896V3.65869C66.2314 3.78564 66.1574 3.84912 66.0093 3.84912H65.9585C65.4211 3.78988 64.8836 3.76025 64.3462 3.76025C63.2629 3.76025 62.7212 4.47965 62.7212 5.91846V6.93408C62.7212 8.37288 63.2629 9.09229 64.3462 9.09229C64.6551 9.09229 64.9365 9.08171 65.1904 9.06055L65.9585 8.99707H66.0093C66.1574 8.99707 66.2314 9.06266 66.2314 9.19385V9.66357ZM69.5767 6.22949L72.4648 9.71436C72.4902 9.73975 72.5029 9.77783 72.5029 9.82861C72.5029 9.94287 72.4564 10 72.3633 10H71.4238C71.3434 10 71.2842 9.9873 71.2461 9.96191C71.2122 9.93229 70.9181 9.57471 70.3638 8.88916L68.5356 6.63574V9.73975C68.5356 9.81169 68.5103 9.87305 68.4595 9.92383C68.4087 9.97461 68.3494 10 68.2817 10H67.6533C67.5814 10 67.52 9.97461 67.4692 9.92383C67.4185 9.87305 67.3931 9.81169 67.3931 9.73975V0.484863C67.3931 0.412923 67.4185 0.351562 67.4692 0.300781C67.52 0.25 67.5814 0.224609 67.6533 0.224609H68.2817C68.3494 0.224609 68.4087 0.25 68.4595 0.300781C68.5103 0.351562 68.5356 0.412923 68.5356 0.484863V5.89307L71.1953 2.90332C71.2292 2.86947 71.2969 2.85254 71.3984 2.85254H72.3062C72.4373 2.85254 72.5029 2.89909 72.5029 2.99219C72.5029 3.03874 72.4945 3.07259 72.4775 3.09375L69.5767 6.22949Z" fill="white"/>
</svg>
