<svg width="201" height="29" viewBox="0 0 201 29" fill="none" xmlns="http://www.w3.org/2000/svg">
<path d="M7.48828 20.5486L6.41602 24.9431C6.01758 26.6072 5.80078 27.4861 5.76562 27.5798C5.74219 27.6619 5.66602 27.7556 5.53711 27.8611C5.41992 27.9548 5.29102 28.0017 5.15039 28.0017H1.33594C0.902344 28.0017 0.685547 27.7966 0.685547 27.3865C0.685547 27.363 0.697266 27.3044 0.720703 27.2107L6.62695 4.64038C7.25977 2.19116 8.92969 0.966553 11.6367 0.966553C14.332 0.966553 15.9961 2.19116 16.6289 4.64038L22.5703 27.3865C22.5703 27.7966 22.3535 28.0017 21.9199 28.0017H18.1055C17.7422 28.0017 17.5137 27.8025 17.4199 27.4041L15.7676 20.5486H7.48828ZM14.8008 16.4529L12.9551 8.84155C12.4043 6.59155 12.0938 5.41968 12.0234 5.32593C11.9531 5.23218 11.8242 5.1853 11.6367 5.1853C11.3555 5.1853 11.1855 5.28491 11.127 5.48413L8.45508 16.4529H14.8008ZM42.2402 27.2458C42.2402 27.4451 42.1699 27.6208 42.0293 27.7732C41.8887 27.9255 41.7188 28.0017 41.5195 28.0017H38.2148C38.0156 28.0017 37.8457 27.9255 37.7051 27.7732C37.5645 27.6208 37.4941 27.4451 37.4941 27.2458V15.5037C37.4941 13.863 37.3184 12.7849 36.9668 12.2693C36.6152 11.7419 35.7715 11.4783 34.4355 11.4783C33.3574 11.4783 31.998 11.9119 30.3574 12.7791V27.2458C30.3574 27.4451 30.2871 27.6208 30.1465 27.7732C30.0059 27.9255 29.8359 28.0017 29.6367 28.0017H26.332C26.1445 28.0017 25.9746 27.9255 25.8223 27.7732C25.6816 27.6208 25.6113 27.4451 25.6113 27.2458V8.41968C25.6113 8.22046 25.6816 8.05054 25.8223 7.90991C25.9629 7.76929 26.1328 7.69897 26.332 7.69897H29.4609C29.6602 7.69897 29.8301 7.76929 29.9707 7.90991C30.1113 8.05054 30.1816 8.22046 30.1816 8.41968V9.17554C31.1309 8.56616 32.0215 8.12671 32.8535 7.85718C33.6855 7.58765 34.7402 7.45288 36.0176 7.45288C38.127 7.45288 39.6914 8.0564 40.7109 9.26343C41.7305 10.4587 42.2402 12.5388 42.2402 15.5037V27.2458ZM61.9629 27.281C61.9629 27.4802 61.8926 27.6501 61.752 27.7908C61.6113 27.9314 61.4414 28.0017 61.2422 28.0017H58.1836C57.9844 28.0017 57.8145 27.9314 57.6738 27.7908C57.5332 27.6501 57.4629 27.4802 57.4629 27.281V26.7009C55.7285 27.7556 54.0352 28.283 52.3828 28.283C50.3789 28.283 48.8379 27.7791 47.7598 26.7712C46.6934 25.7634 46.1602 24.2634 46.1602 22.2712V22.1306C46.1602 20.033 46.8574 18.4744 48.252 17.4548C49.6465 16.4236 51.8789 15.908 54.9492 15.908H57.2168V14.3259C57.2168 13.2009 56.9648 12.4333 56.4609 12.0232C55.9688 11.613 55.166 11.408 54.0527 11.408C52.9629 11.408 51.9199 11.4373 50.9238 11.4958L48.1816 11.6892H48.0059C47.5723 11.6892 47.3555 11.4841 47.3555 11.074V8.77124C47.3555 8.52515 47.4434 8.33179 47.6191 8.19116C47.8066 8.03882 48.5859 7.88062 49.957 7.71655C51.3398 7.54077 52.7051 7.45288 54.0527 7.45288C59.3262 7.45288 61.9629 9.7439 61.9629 14.3259V27.281ZM57.2168 23.5017V19.072H54.9492C53.5547 19.072 52.5352 19.2771 51.8906 19.6873C51.2578 20.0974 50.9414 20.9119 50.9414 22.1306V22.2712C50.9414 23.0916 51.123 23.6716 51.4863 24.0115C51.8613 24.3396 52.5469 24.5037 53.543 24.5037C54.75 24.5037 55.9746 24.1697 57.2168 23.5017ZM83.2676 27.2458C83.2676 27.4451 83.1973 27.6208 83.0566 27.7732C82.916 27.9255 82.7461 28.0017 82.5469 28.0017H79.2422C79.043 28.0017 78.873 27.9255 78.7324 27.7732C78.5918 27.6208 78.5215 27.4451 78.5215 27.2458V15.5037C78.5215 13.863 78.3457 12.7849 77.9941 12.2693C77.6426 11.7419 76.7988 11.4783 75.4629 11.4783C74.3848 11.4783 73.0254 11.9119 71.3848 12.7791V27.2458C71.3848 27.4451 71.3145 27.6208 71.1738 27.7732C71.0332 27.9255 70.8633 28.0017 70.6641 28.0017H67.3594C67.1719 28.0017 67.002 27.9255 66.8496 27.7732C66.709 27.6208 66.6387 27.4451 66.6387 27.2458V8.41968C66.6387 8.22046 66.709 8.05054 66.8496 7.90991C66.9902 7.76929 67.1602 7.69897 67.3594 7.69897H70.4883C70.6875 7.69897 70.8574 7.76929 70.998 7.90991C71.1387 8.05054 71.209 8.22046 71.209 8.41968V9.17554C72.1582 8.56616 73.0488 8.12671 73.8809 7.85718C74.7129 7.58765 75.7676 7.45288 77.0449 7.45288C79.1543 7.45288 80.7188 8.0564 81.7383 9.26343C82.7578 10.4587 83.2676 12.5388 83.2676 15.5037V27.2458ZM102.99 27.281C102.99 27.4802 102.92 27.6501 102.779 27.7908C102.639 27.9314 102.469 28.0017 102.27 28.0017H99.2109C99.0117 28.0017 98.8418 27.9314 98.7012 27.7908C98.5605 27.6501 98.4902 27.4802 98.4902 27.281V26.7009C96.7559 27.7556 95.0625 28.283 93.4102 28.283C91.4062 28.283 89.8652 27.7791 88.7871 26.7712C87.7207 25.7634 87.1875 24.2634 87.1875 22.2712V22.1306C87.1875 20.033 87.8848 18.4744 89.2793 17.4548C90.6738 16.4236 92.9062 15.908 95.9766 15.908H98.2441V14.3259C98.2441 13.2009 97.9922 12.4333 97.4883 12.0232C96.9961 11.613 96.1934 11.408 95.0801 11.408C93.9902 11.408 92.9473 11.4373 91.9512 11.4958L89.209 11.6892H89.0332C88.5996 11.6892 88.3828 11.4841 88.3828 11.074V8.77124C88.3828 8.52515 88.4707 8.33179 88.6465 8.19116C88.834 8.03882 89.6133 7.88062 90.9844 7.71655C92.3672 7.54077 93.7324 7.45288 95.0801 7.45288C100.354 7.45288 102.99 9.7439 102.99 14.3259V27.281ZM98.2441 23.5017V19.072H95.9766C94.582 19.072 93.5625 19.2771 92.918 19.6873C92.2852 20.0974 91.9688 20.9119 91.9688 22.1306V22.2712C91.9688 23.0916 92.1504 23.6716 92.5137 24.0115C92.8887 24.3396 93.5742 24.5037 94.5703 24.5037C95.7773 24.5037 97.002 24.1697 98.2441 23.5017ZM119.285 11.7595C117.27 11.4783 115.289 11.3376 113.344 11.3376C112.453 11.3376 111.814 11.4548 111.428 11.6892C111.041 11.9119 110.848 12.2986 110.848 12.8494C110.848 13.2478 111.082 13.5876 111.551 13.8689L117.018 17.2087C118.143 17.8884 118.998 18.6384 119.584 19.4587C120.17 20.2791 120.463 21.3513 120.463 22.6755C120.463 24.363 119.836 25.7224 118.582 26.7537C117.34 27.7732 115.617 28.283 113.414 28.283C112.008 28.283 110.578 28.1833 109.125 27.9841C107.672 27.7849 106.834 27.5974 106.611 27.4216C106.389 27.2458 106.277 27.0173 106.277 26.7361V24.574C106.277 24.4333 106.336 24.3044 106.453 24.1873C106.582 24.0701 106.729 24.0115 106.893 24.0115H107.033C109.154 24.2693 111.17 24.3982 113.08 24.3982C113.912 24.3982 114.545 24.2869 114.979 24.0642C115.424 23.8298 115.646 23.3669 115.646 22.6755C115.646 22.113 115.271 21.5974 114.521 21.1287L109.125 17.8064C108.188 17.2322 107.449 16.5115 106.91 15.6443C106.371 14.7654 106.102 13.8337 106.102 12.8494C106.102 9.25171 108.381 7.45288 112.939 7.45288C114.604 7.45288 116.104 7.57007 117.439 7.80444C118.787 8.0271 119.549 8.20874 119.725 8.34937C119.912 8.48999 120.006 8.70679 120.006 8.99976V11.074C120.006 11.531 119.812 11.7595 119.426 11.7595H119.285Z" fill="#FF8E01"/>
<path d="M129.076 27.281C129.076 27.4802 129.006 27.6501 128.865 27.7908C128.725 27.9314 128.555 28.0017 128.355 28.0017H125.156C124.957 28.0017 124.787 27.9314 124.646 27.7908C124.506 27.6501 124.436 27.4802 124.436 27.281V23.2205C124.436 23.0212 124.506 22.8572 124.646 22.7283C124.787 22.5994 124.957 22.5349 125.156 22.5349H128.355C128.555 22.5349 128.725 22.5994 128.865 22.7283C129.006 22.8572 129.076 23.0212 129.076 23.2205V27.281Z" fill="#7BA1FF"/>
<path d="M149.766 27.0701C149.766 27.3396 149.648 27.5388 149.414 27.6677C149.18 27.7849 148.506 27.908 147.393 28.0369C146.291 28.1775 144.855 28.2478 143.086 28.2478C140.156 28.2478 137.836 27.3044 136.125 25.4177C134.426 23.531 133.576 20.7712 133.576 17.1384V12.1287C133.576 8.47241 134.42 5.70679 136.107 3.83179C137.807 1.94507 140.133 1.00171 143.086 1.00171C144.258 1.00171 145.582 1.09546 147.059 1.28296C148.547 1.47046 149.355 1.60522 149.484 1.68726C149.625 1.75757 149.695 1.87476 149.695 2.03882V3.88452C149.695 4.14233 149.555 4.27124 149.273 4.27124H149.168C146.566 4.0603 144.551 3.95483 143.121 3.95483C138.938 3.95483 136.846 6.67944 136.846 12.1287V17.1384C136.846 19.8337 137.379 21.8669 138.445 23.238C139.523 24.6091 141.082 25.2947 143.121 25.2947C144.023 25.2947 145.014 25.2654 146.092 25.2068L149.062 25.0134H149.203C149.578 25.0134 149.766 25.2068 149.766 25.5935V27.0701ZM157.008 27.281C157.008 27.4685 156.943 27.6384 156.814 27.7908C156.697 27.9314 156.545 28.0017 156.357 28.0017H154.494C154.307 28.0017 154.148 27.9314 154.02 27.7908C153.902 27.6501 153.844 27.4802 153.844 27.281V1.61694C153.844 1.15991 154.061 0.931396 154.494 0.931396H156.357C156.791 0.931396 157.008 1.15991 157.008 1.61694V27.281ZM165.902 4.3064C165.902 4.50562 165.832 4.67554 165.691 4.81616C165.551 4.95679 165.381 5.0271 165.182 5.0271H163.354C163.154 5.0271 162.984 4.95679 162.844 4.81616C162.703 4.67554 162.633 4.50562 162.633 4.3064V1.44116C162.633 1.24194 162.703 1.07202 162.844 0.931396C162.984 0.790771 163.154 0.720459 163.354 0.720459H165.182C165.381 0.720459 165.551 0.790771 165.691 0.931396C165.832 1.07202 165.902 1.24194 165.902 1.44116V4.3064ZM165.832 27.281C165.832 27.4802 165.762 27.6501 165.621 27.7908C165.48 27.9314 165.311 28.0017 165.111 28.0017H163.389C163.189 28.0017 163.02 27.9314 162.879 27.7908C162.738 27.6501 162.668 27.4802 162.668 27.281V8.92944C162.668 8.73022 162.738 8.5603 162.879 8.41968C163.02 8.27905 163.189 8.20874 163.389 8.20874H165.111C165.311 8.20874 165.48 8.27905 165.621 8.41968C165.762 8.5603 165.832 8.73022 165.832 8.92944V27.281ZM183.41 27.0701C183.41 27.4685 183.281 27.7087 183.023 27.7908C182.766 27.8728 182.133 27.9666 181.125 28.072C180.117 28.1892 179.139 28.2478 178.189 28.2478C175.799 28.2478 173.918 27.4685 172.547 25.9099C171.188 24.3513 170.508 22.2185 170.508 19.5115V16.699C170.508 13.9802 171.188 11.8416 172.547 10.283C173.906 8.72437 175.787 7.94507 178.189 7.94507C179.373 7.94507 180.469 8.01538 181.477 8.15601C182.484 8.29663 183.059 8.42554 183.199 8.54272C183.34 8.64819 183.41 8.84741 183.41 9.14038V10.4412C183.41 10.7927 183.205 10.9685 182.795 10.9685H182.654C181.166 10.8044 179.678 10.7224 178.189 10.7224C175.189 10.7224 173.689 12.7146 173.689 16.699V19.5115C173.689 23.4958 175.189 25.488 178.189 25.488C179.045 25.488 179.824 25.4587 180.527 25.4001L182.654 25.2244H182.795C183.205 25.2244 183.41 25.406 183.41 25.7693V27.0701ZM192.674 17.5603L200.672 27.2107C200.742 27.281 200.777 27.3865 200.777 27.5271C200.777 27.8435 200.648 28.0017 200.391 28.0017H197.789C197.566 28.0017 197.402 27.9666 197.297 27.8962C197.203 27.8142 196.389 26.824 194.854 24.9255L189.791 18.6853V27.281C189.791 27.4802 189.721 27.6501 189.58 27.7908C189.439 27.9314 189.275 28.0017 189.088 28.0017H187.348C187.148 28.0017 186.979 27.9314 186.838 27.7908C186.697 27.6501 186.627 27.4802 186.627 27.281V1.6521C186.627 1.45288 186.697 1.28296 186.838 1.14233C186.979 1.00171 187.148 0.931396 187.348 0.931396H189.088C189.275 0.931396 189.439 1.00171 189.58 1.14233C189.721 1.28296 189.791 1.45288 189.791 1.6521V16.6287L197.156 8.34937C197.25 8.25562 197.438 8.20874 197.719 8.20874H200.232C200.596 8.20874 200.777 8.33765 200.777 8.59546C200.777 8.72437 200.754 8.81812 200.707 8.87671L192.674 17.5603Z" fill="white"/>
</svg>
