<svg width="21" height="20" viewBox="0 0 21 20" fill="none" xmlns="http://www.w3.org/2000/svg">
<path d="M0.274902 10C0.274902 8.89543 1.17057 8 2.27543 8H18.2796C19.3845 8 20.2802 8.89543 20.2802 10C20.2802 11.1046 19.3845 12 18.2796 12H2.27543C1.17057 12 0.274902 11.1046 0.274902 10Z" fill="white"/>
<path d="M10.2775 20C9.17267 20 8.277 19.1046 8.277 18L8.277 2C8.277 0.895431 9.17267 4.82832e-08 10.2775 0C11.3824 -4.82814e-08 12.2781 0.895431 12.2781 2L12.2781 18C12.2781 19.1046 11.3824 20 10.2775 20Z" fill="white"/>
</svg>
